<svg xmlns="http://www.w3.org/2000/svg" viewBox="0 0 48 48">
  <path fill="#EA4335" d="M24 9.5c3.5 0 6.7 1.2 9.2 3.7l6.8-6.8C35.5 2.4 30.2 0 24 0 14.6 0 6.6 5.4 2.8 13.2l7.9 6.1C12.7 13 17.9 9.5 24 9.5z"/>
  <path fill="#4285F4" d="M46.1 24.5c0-1.6-.1-3.1-.4-4.5H24v9h12.7c-.6 3-2.3 5.5-4.8 7.2l7.5 5.8c4.4-4 6.7-9.9 6.7-17.5z"/>
  <path fill="#FBBC04" d="M10.7 28.7c-.5-1.5-.7-3.1-.7-4.7s.3-3.2.7-4.7l-7.9-6.1C.9 16.5 0 20.1 0 24s.9 7.5 2.8 10.8l7.9-6.1z"/>
  <path fill="#34A853" d="M24 48c6.2 0 11.5-2 15.3-5.5l-7.5-5.8c-2.1 1.4-4.8 2.3-7.8 2.3-6.1 0-11.3-4.1-13.2-9.8l-7.9 6.1C6.6 42.6 14.6 48 24 48z"/>
</svg>
